<mxfile host="app.diagrams.net" modified="2024-02-26T11:37:47.701Z" agent="Mozilla/5.0 (Macintosh; Intel Mac OS X 10_15_7) AppleWebKit/537.36 (KHTML, like Gecko) Chrome/118.0.0.0 Safari/537.36" etag="Gx4n0gAh4_rPJCmrIMkw" version="23.1.6" type="device">
  <diagram name="Page-1" id="arwjkRtwd51AYSBVNWPB">
    <mxGraphModel dx="1967" dy="762" grid="1" gridSize="10" guides="1" tooltips="1" connect="1" arrows="1" fold="1" page="1" pageScale="1" pageWidth="827" pageHeight="1169" math="0" shadow="0">
      <root>
        <mxCell id="0" />
        <mxCell id="1" parent="0" />
        <mxCell id="-D5_AwQAN93aYBhY4414-1" value="CyclingPortalImpl" style="swimlane;fontStyle=1;align=center;verticalAlign=top;childLayout=stackLayout;horizontal=1;startSize=26;horizontalStack=0;resizeParent=1;resizeParentMax=0;resizeLast=0;collapsible=1;marginBottom=0;whiteSpace=wrap;html=1;" parent="1" vertex="1">
          <mxGeometry x="210" y="70" width="410" height="820" as="geometry" />
        </mxCell>
        <mxCell id="-D5_AwQAN93aYBhY4414-2" value="- riders: Dict[int id, Rider]&lt;br&gt;- teams: Dict[int id, Team]&lt;br&gt;- races: Dict[int id, Race]&lt;br&gt;- stages: Dict[int id, Stage]&lt;br&gt;- checkpoints: Dict[int id, Checkpoint]&lt;br&gt;&lt;div&gt;&lt;br&gt;&lt;/div&gt;" style="text;strokeColor=none;fillColor=none;align=left;verticalAlign=top;spacingLeft=4;spacingRight=4;overflow=hidden;rotatable=0;points=[[0,0.5],[1,0.5]];portConstraint=eastwest;whiteSpace=wrap;html=1;" parent="-D5_AwQAN93aYBhY4414-1" vertex="1">
          <mxGeometry y="26" width="410" height="124" as="geometry" />
        </mxCell>
        <mxCell id="-D5_AwQAN93aYBhY4414-3" value="" style="line;strokeWidth=1;fillColor=none;align=left;verticalAlign=middle;spacingTop=-1;spacingLeft=3;spacingRight=3;rotatable=0;labelPosition=right;points=[];portConstraint=eastwest;strokeColor=inherit;" parent="-D5_AwQAN93aYBhY4414-1" vertex="1">
          <mxGeometry y="150" width="410" height="8" as="geometry" />
        </mxCell>
        <mxCell id="-D5_AwQAN93aYBhY4414-4" value="&lt;b&gt;From MiniCyclingPortal Interface&lt;/b&gt;&lt;br&gt;+&amp;nbsp;getRaceIds() : int[]&lt;div&gt;+&amp;nbsp;createRace(String name, String description) : int&lt;/div&gt;&lt;div&gt;+&amp;nbsp;viewRaceDetails(int raceId) : String&lt;/div&gt;&lt;div&gt;+&amp;nbsp;removeRaceById(int raceId) : void&lt;/div&gt;&lt;div&gt;+ getNumberOfStages(int raceId) : int&lt;/div&gt;&lt;div&gt;+&amp;nbsp;addStageToRace(int raceId, String stageName, String description, double length, LocalDateTime startTime, StageType type) : int&lt;br&gt;+&amp;nbsp;getRaceStages(int raceId) : int[]&lt;/div&gt;&lt;div&gt;+&amp;nbsp;getStageLength(int stageId) : double&lt;/div&gt;&lt;div&gt;+&amp;nbsp;removeStageById(int stageId) : void&lt;/div&gt;&lt;div&gt;+&amp;nbsp;addCategorizedClimbToStage(int stageId, Double location, CheckpointType type, Double averageGradient,&amp;nbsp;&lt;span style=&quot;background-color: initial;&quot;&gt;Double length) : int&lt;/span&gt;&lt;/div&gt;&lt;div&gt;+&amp;nbsp;addIntermediateSprintToStage(int stageId, double location) : int&lt;/div&gt;&lt;div&gt;+&amp;nbsp;removeCheckpoint(int checkpointId) : void&lt;br&gt;+&amp;nbsp;concludeStagePreparation(int stageId) : void&lt;/div&gt;&lt;div&gt;+&amp;nbsp;getStageCheckpoints(int stageId) : int[]&lt;/div&gt;&lt;div&gt;+&amp;nbsp;createTeam(String name, String description) : int&lt;/div&gt;&lt;div&gt;+&amp;nbsp;removeTeam(int teamId) : void&lt;/div&gt;&lt;div&gt;+&amp;nbsp;getTeams() : int[]&lt;/div&gt;&lt;div&gt;+&amp;nbsp;getTeamRiders(int teamId) : int[]&lt;/div&gt;&lt;div&gt;+&amp;nbsp;createRider(int teamID, String name, int yearOfBirth) : int&lt;/div&gt;&lt;div&gt;+&amp;nbsp;removeRider(int riderId) : void&lt;/div&gt;&lt;div&gt;+&amp;nbsp;registerRiderResultsInStage(int stageId, int riderId, LocalTime... checkpointTimes)&lt;br&gt;+&amp;nbsp;getRiderResultsInStage(int stageId, int riderId) : LocalTime[]&lt;/div&gt;&lt;div&gt;+&amp;nbsp;getRiderAdjustedElapsedTimeInStage(int stageId, int riderId) : LocalTime&lt;/div&gt;&lt;div&gt;+&amp;nbsp;deleteRiderResultsInStage(int stageId, int riderId) : void&lt;/div&gt;&lt;div&gt;+&amp;nbsp;getRidersRankInStage(int stageId) : int[]&lt;/div&gt;&lt;div&gt;+&amp;nbsp;getRankedAdjustedElapsedTimesInStage(int stageId) : LocalTime[]&lt;/div&gt;&lt;div&gt;+&amp;nbsp;getRidersPointsInStage(int stageId) : int[]&lt;br&gt;+&amp;nbsp;getRidersMountainPointsInStage(int stageId) : int[]&lt;/div&gt;&lt;div&gt;+&amp;nbsp;eraseCyclingPortal() : void&lt;/div&gt;&lt;div&gt;+&amp;nbsp;saveCyclingPortal(String filename) : void&lt;/div&gt;&lt;div&gt;+&amp;nbsp;loadCyclingPortal(String filename) : void&lt;/div&gt;&lt;div&gt;&lt;b&gt;From CyclingPortal&lt;/b&gt;&amp;nbsp;&lt;b&gt;Interface&lt;/b&gt;&lt;/div&gt;&lt;div&gt;+&amp;nbsp;removeRaceByName(String name) : void&lt;/div&gt;&lt;div&gt;+&amp;nbsp;getRidersGeneralClassificationRank(int raceId) : int[]&lt;/div&gt;&lt;div&gt;+&amp;nbsp;getGeneralClassificationTimesInRace(int raceId) : LocalTime[]&lt;/div&gt;&lt;div&gt;+&amp;nbsp;getRidersPointsInRace(int raceId) : int[]&lt;/div&gt;&lt;div&gt;+&amp;nbsp;getRidersMountainPointsInRace(int raceId) : int[]&lt;/div&gt;&lt;div&gt;+&amp;nbsp;getRidersPointClassificationRank(int raceId) : int[]&lt;/div&gt;&lt;div&gt;+&amp;nbsp;getRidersMountainPointClassificationRank(int raceId) : int[]&lt;/div&gt;&lt;div&gt;&lt;b&gt;Own Methods&lt;/b&gt;&lt;/div&gt;&lt;div&gt;....&lt;/div&gt;&lt;div&gt;&lt;br&gt;&lt;/div&gt;" style="text;strokeColor=none;fillColor=none;align=left;verticalAlign=top;spacingLeft=4;spacingRight=4;overflow=hidden;rotatable=0;points=[[0,0.5],[1,0.5]];portConstraint=eastwest;whiteSpace=wrap;html=1;" parent="-D5_AwQAN93aYBhY4414-1" vertex="1">
          <mxGeometry y="158" width="410" height="662" as="geometry" />
        </mxCell>
        <mxCell id="SZXmGyQFNp5eZEDVhCkV-1" value="Team" style="swimlane;fontStyle=1;align=center;verticalAlign=top;childLayout=stackLayout;horizontal=1;startSize=26;horizontalStack=0;resizeParent=1;resizeParentMax=0;resizeLast=0;collapsible=1;marginBottom=0;whiteSpace=wrap;html=1;" parent="1" vertex="1">
          <mxGeometry x="760" y="113" width="160" height="170" as="geometry" />
        </mxCell>
        <mxCell id="SZXmGyQFNp5eZEDVhCkV-2" value="- id&amp;nbsp;: int&lt;br&gt;- idsUsed: List&amp;lt;int&amp;gt;&lt;br&gt;- name : String&lt;br&gt;- description : String" style="text;strokeColor=none;fillColor=none;align=left;verticalAlign=top;spacingLeft=4;spacingRight=4;overflow=hidden;rotatable=0;points=[[0,0.5],[1,0.5]];portConstraint=eastwest;whiteSpace=wrap;html=1;" parent="SZXmGyQFNp5eZEDVhCkV-1" vertex="1">
          <mxGeometry y="26" width="160" height="74" as="geometry" />
        </mxCell>
        <mxCell id="SZXmGyQFNp5eZEDVhCkV-3" value="" style="line;strokeWidth=1;fillColor=none;align=left;verticalAlign=middle;spacingTop=-1;spacingLeft=3;spacingRight=3;rotatable=0;labelPosition=right;points=[];portConstraint=eastwest;strokeColor=inherit;" parent="SZXmGyQFNp5eZEDVhCkV-1" vertex="1">
          <mxGeometry y="100" width="160" height="8" as="geometry" />
        </mxCell>
        <mxCell id="SZXmGyQFNp5eZEDVhCkV-4" value="+ getId() : int&lt;div&gt;&lt;br/&gt;&lt;/div&gt;" style="text;strokeColor=none;fillColor=none;align=left;verticalAlign=top;spacingLeft=4;spacingRight=4;overflow=hidden;rotatable=0;points=[[0,0.5],[1,0.5]];portConstraint=eastwest;whiteSpace=wrap;html=1;" parent="SZXmGyQFNp5eZEDVhCkV-1" vertex="1">
          <mxGeometry y="108" width="160" height="62" as="geometry" />
        </mxCell>
        <mxCell id="SZXmGyQFNp5eZEDVhCkV-5" value="Rider" style="swimlane;fontStyle=1;align=center;verticalAlign=top;childLayout=stackLayout;horizontal=1;startSize=26;horizontalStack=0;resizeParent=1;resizeParentMax=0;resizeLast=0;collapsible=1;marginBottom=0;whiteSpace=wrap;html=1;" parent="1" vertex="1">
          <mxGeometry x="740" y="370" width="160" height="200" as="geometry" />
        </mxCell>
        <mxCell id="SZXmGyQFNp5eZEDVhCkV-6" value="- id : int&lt;br&gt;- idsUsed: List&amp;lt;int&amp;gt;&lt;div&gt;- yearOfBirth: int&lt;/div&gt;&lt;div&gt;- name : string&lt;/div&gt;&lt;div&gt;- teamId : int&lt;/div&gt;" style="text;strokeColor=none;fillColor=none;align=left;verticalAlign=top;spacingLeft=4;spacingRight=4;overflow=hidden;rotatable=0;points=[[0,0.5],[1,0.5]];portConstraint=eastwest;whiteSpace=wrap;html=1;" parent="SZXmGyQFNp5eZEDVhCkV-5" vertex="1">
          <mxGeometry y="26" width="160" height="84" as="geometry" />
        </mxCell>
        <mxCell id="SZXmGyQFNp5eZEDVhCkV-7" value="" style="line;strokeWidth=1;fillColor=none;align=left;verticalAlign=middle;spacingTop=-1;spacingLeft=3;spacingRight=3;rotatable=0;labelPosition=right;points=[];portConstraint=eastwest;strokeColor=inherit;" parent="SZXmGyQFNp5eZEDVhCkV-5" vertex="1">
          <mxGeometry y="110" width="160" height="8" as="geometry" />
        </mxCell>
        <mxCell id="SZXmGyQFNp5eZEDVhCkV-8" value="+ getId() : int" style="text;strokeColor=none;fillColor=none;align=left;verticalAlign=top;spacingLeft=4;spacingRight=4;overflow=hidden;rotatable=0;points=[[0,0.5],[1,0.5]];portConstraint=eastwest;whiteSpace=wrap;html=1;" parent="SZXmGyQFNp5eZEDVhCkV-5" vertex="1">
          <mxGeometry y="118" width="160" height="82" as="geometry" />
        </mxCell>
        <mxCell id="SZXmGyQFNp5eZEDVhCkV-9" style="edgeStyle=orthogonalEdgeStyle;rounded=0;orthogonalLoop=1;jettySize=auto;html=1;exitX=0;exitY=0.5;exitDx=0;exitDy=0;entryX=1.002;entryY=0.376;entryDx=0;entryDy=0;entryPerimeter=0;endArrow=diamond;endFill=1;" parent="1" source="SZXmGyQFNp5eZEDVhCkV-2" target="-D5_AwQAN93aYBhY4414-2" edge="1">
          <mxGeometry relative="1" as="geometry">
            <Array as="points">
              <mxPoint x="690" y="176" />
              <mxPoint x="690" y="140" />
              <mxPoint x="621" y="140" />
            </Array>
          </mxGeometry>
        </mxCell>
        <mxCell id="SZXmGyQFNp5eZEDVhCkV-10" style="edgeStyle=orthogonalEdgeStyle;rounded=0;orthogonalLoop=1;jettySize=auto;html=1;exitX=0;exitY=0.5;exitDx=0;exitDy=0;entryX=1.008;entryY=0.578;entryDx=0;entryDy=0;entryPerimeter=0;endArrow=diamond;endFill=1;" parent="1" source="SZXmGyQFNp5eZEDVhCkV-6" target="-D5_AwQAN93aYBhY4414-2" edge="1">
          <mxGeometry relative="1" as="geometry" />
        </mxCell>
        <mxCell id="SZXmGyQFNp5eZEDVhCkV-11" value="Race" style="swimlane;fontStyle=1;align=center;verticalAlign=top;childLayout=stackLayout;horizontal=1;startSize=26;horizontalStack=0;resizeParent=1;resizeParentMax=0;resizeLast=0;collapsible=1;marginBottom=0;whiteSpace=wrap;html=1;" parent="1" vertex="1">
          <mxGeometry x="-190" y="160" width="200" height="180" as="geometry" />
        </mxCell>
        <mxCell id="SZXmGyQFNp5eZEDVhCkV-12" value="- id : int&lt;br&gt;- idsUsed : List&amp;lt;int&amp;gt;&lt;br&gt;- name : String&lt;br&gt;- description : String" style="text;strokeColor=none;fillColor=none;align=left;verticalAlign=top;spacingLeft=4;spacingRight=4;overflow=hidden;rotatable=0;points=[[0,0.5],[1,0.5]];portConstraint=eastwest;whiteSpace=wrap;html=1;" parent="SZXmGyQFNp5eZEDVhCkV-11" vertex="1">
          <mxGeometry y="26" width="200" height="74" as="geometry" />
        </mxCell>
        <mxCell id="SZXmGyQFNp5eZEDVhCkV-13" value="" style="line;strokeWidth=1;fillColor=none;align=left;verticalAlign=middle;spacingTop=-1;spacingLeft=3;spacingRight=3;rotatable=0;labelPosition=right;points=[];portConstraint=eastwest;strokeColor=inherit;" parent="SZXmGyQFNp5eZEDVhCkV-11" vertex="1">
          <mxGeometry y="100" width="200" height="8" as="geometry" />
        </mxCell>
        <mxCell id="SZXmGyQFNp5eZEDVhCkV-14" value="+ getId() : int&lt;br&gt;+ viewDetails() : String" style="text;strokeColor=none;fillColor=none;align=left;verticalAlign=top;spacingLeft=4;spacingRight=4;overflow=hidden;rotatable=0;points=[[0,0.5],[1,0.5]];portConstraint=eastwest;whiteSpace=wrap;html=1;" parent="SZXmGyQFNp5eZEDVhCkV-11" vertex="1">
          <mxGeometry y="108" width="200" height="72" as="geometry" />
        </mxCell>
        <mxCell id="SZXmGyQFNp5eZEDVhCkV-15" style="edgeStyle=orthogonalEdgeStyle;rounded=0;orthogonalLoop=1;jettySize=auto;html=1;exitX=1;exitY=0.5;exitDx=0;exitDy=0;entryX=0;entryY=0.79;entryDx=0;entryDy=0;entryPerimeter=0;endArrow=diamondThin;endFill=1;" parent="1" source="SZXmGyQFNp5eZEDVhCkV-12" target="-D5_AwQAN93aYBhY4414-2" edge="1">
          <mxGeometry relative="1" as="geometry" />
        </mxCell>
        <mxCell id="SZXmGyQFNp5eZEDVhCkV-17" style="edgeStyle=orthogonalEdgeStyle;rounded=0;orthogonalLoop=1;jettySize=auto;html=1;exitX=0.75;exitY=0;exitDx=0;exitDy=0;entryX=0.633;entryY=1.009;entryDx=0;entryDy=0;entryPerimeter=0;" parent="1" source="SZXmGyQFNp5eZEDVhCkV-5" target="SZXmGyQFNp5eZEDVhCkV-4" edge="1">
          <mxGeometry relative="1" as="geometry" />
        </mxCell>
        <mxCell id="SZXmGyQFNp5eZEDVhCkV-18" value="Stage" style="swimlane;fontStyle=1;align=center;verticalAlign=top;childLayout=stackLayout;horizontal=1;startSize=26;horizontalStack=0;resizeParent=1;resizeParentMax=0;resizeLast=0;collapsible=1;marginBottom=0;whiteSpace=wrap;html=1;" parent="1" vertex="1">
          <mxGeometry x="-500" y="155" width="220" height="250" as="geometry" />
        </mxCell>
        <mxCell id="SZXmGyQFNp5eZEDVhCkV-19" value="- id : int&lt;br&gt;- idsUsed : List&amp;lt;int&amp;gt;&lt;br&gt;- name : String&lt;br&gt;- description : String&lt;br&gt;- length : double" style="text;strokeColor=none;fillColor=none;align=left;verticalAlign=top;spacingLeft=4;spacingRight=4;overflow=hidden;rotatable=0;points=[[0,0.5],[1,0.5]];portConstraint=eastwest;whiteSpace=wrap;html=1;" parent="SZXmGyQFNp5eZEDVhCkV-18" vertex="1">
          <mxGeometry y="26" width="220" height="84" as="geometry" />
        </mxCell>
        <mxCell id="SZXmGyQFNp5eZEDVhCkV-20" value="" style="line;strokeWidth=1;fillColor=none;align=left;verticalAlign=middle;spacingTop=-1;spacingLeft=3;spacingRight=3;rotatable=0;labelPosition=right;points=[];portConstraint=eastwest;strokeColor=inherit;" parent="SZXmGyQFNp5eZEDVhCkV-18" vertex="1">
          <mxGeometry y="110" width="220" height="8" as="geometry" />
        </mxCell>
        <mxCell id="SZXmGyQFNp5eZEDVhCkV-21" value="+ getId() : int&lt;div&gt;&lt;br/&gt;&lt;/div&gt;" style="text;strokeColor=none;fillColor=none;align=left;verticalAlign=top;spacingLeft=4;spacingRight=4;overflow=hidden;rotatable=0;points=[[0,0.5],[1,0.5]];portConstraint=eastwest;whiteSpace=wrap;html=1;" parent="SZXmGyQFNp5eZEDVhCkV-18" vertex="1">
          <mxGeometry y="118" width="220" height="132" as="geometry" />
        </mxCell>
        <mxCell id="SZXmGyQFNp5eZEDVhCkV-22" style="edgeStyle=orthogonalEdgeStyle;rounded=0;orthogonalLoop=1;jettySize=auto;html=1;exitX=0;exitY=0.5;exitDx=0;exitDy=0;entryX=0.5;entryY=0;entryDx=0;entryDy=0;startArrow=diamondThin;startFill=1;endArrow=none;endFill=0;" parent="1" source="-D5_AwQAN93aYBhY4414-2" target="SZXmGyQFNp5eZEDVhCkV-18" edge="1">
          <mxGeometry relative="1" as="geometry">
            <Array as="points">
              <mxPoint x="210" y="130" />
              <mxPoint x="-420" y="130" />
              <mxPoint x="-420" y="155" />
            </Array>
          </mxGeometry>
        </mxCell>
      </root>
    </mxGraphModel>
  </diagram>
</mxfile>
